<mxfile host="app.diagrams.net" modified="2021-03-08T20:51:52.330Z" agent="5.0 (Windows NT 10.0; Win64; x64) AppleWebKit/537.36 (KHTML, like Gecko) Chrome/88.0.4324.190 Safari/537.36" etag="UlWicAe8CBbGhYld09ia" version="14.4.4" type="github">
  <diagram id="R2lEEEUBdFMjLlhIrx00" name="Page-1">
    <mxGraphModel dx="2062" dy="794" grid="1" gridSize="10" guides="1" tooltips="1" connect="1" arrows="1" fold="1" page="1" pageScale="1" pageWidth="850" pageHeight="1100" math="0" shadow="0" extFonts="Permanent Marker^https://fonts.googleapis.com/css?family=Permanent+Marker">
      <root>
        <mxCell id="0" />
        <mxCell id="1" parent="0" />
        <mxCell id="08f4HY2ZrnXzvE_bdeJu-1" value="Funcionário" style="whiteSpace=wrap;html=1;align=center;" vertex="1" parent="1">
          <mxGeometry x="320" y="200" width="80" height="40" as="geometry" />
        </mxCell>
        <mxCell id="08f4HY2ZrnXzvE_bdeJu-2" value="CPF" style="ellipse;whiteSpace=wrap;html=1;align=center;fontStyle=4;" vertex="1" parent="1">
          <mxGeometry x="180" y="160" width="60" height="40" as="geometry" />
        </mxCell>
        <mxCell id="08f4HY2ZrnXzvE_bdeJu-5" value="" style="endArrow=none;html=1;rounded=0;exitX=1;exitY=0.5;exitDx=0;exitDy=0;entryX=0;entryY=0.5;entryDx=0;entryDy=0;" edge="1" parent="1" source="08f4HY2ZrnXzvE_bdeJu-2" target="08f4HY2ZrnXzvE_bdeJu-1">
          <mxGeometry relative="1" as="geometry">
            <mxPoint x="540" y="390" as="sourcePoint" />
            <mxPoint x="700" y="390" as="targetPoint" />
          </mxGeometry>
        </mxCell>
        <mxCell id="08f4HY2ZrnXzvE_bdeJu-6" value="Nome" style="ellipse;whiteSpace=wrap;html=1;align=center;" vertex="1" parent="1">
          <mxGeometry x="200" y="110" width="55" height="40" as="geometry" />
        </mxCell>
        <mxCell id="08f4HY2ZrnXzvE_bdeJu-7" value="Endereço" style="ellipse;whiteSpace=wrap;html=1;align=center;" vertex="1" parent="1">
          <mxGeometry x="260" y="90" width="55" height="40" as="geometry" />
        </mxCell>
        <mxCell id="08f4HY2ZrnXzvE_bdeJu-8" value="Telefone&lt;span style=&quot;color: rgba(0 , 0 , 0 , 0) ; font-family: monospace ; font-size: 0px&quot;&gt;%3CmxGraphModel%3E%3Croot%3E%3CmxCell%20id%3D%220%22%2F%3E%3CmxCell%20id%3D%221%22%20parent%3D%220%22%2F%3E%3CmxCell%20id%3D%222%22%20value%3D%22Nome%22%20style%3D%22ellipse%3BwhiteSpace%3Dwrap%3Bhtml%3D1%3Balign%3Dcenter%3B%22%20vertex%3D%221%22%20parent%3D%221%22%3E%3CmxGeometry%20x%3D%22395%22%20y%3D%22280%22%20width%3D%2255%22%20height%3D%2240%22%20as%3D%22geometry%22%2F%3E%3C%2FmxCell%3E%3C%2Froot%3E%3C%2FmxGraphModel%3E&lt;/span&gt;" style="ellipse;whiteSpace=wrap;html=1;align=center;" vertex="1" parent="1">
          <mxGeometry x="320" y="90" width="55" height="40" as="geometry" />
        </mxCell>
        <mxCell id="08f4HY2ZrnXzvE_bdeJu-9" value="Sexo" style="ellipse;whiteSpace=wrap;html=1;align=center;" vertex="1" parent="1">
          <mxGeometry x="275" y="270" width="55" height="40" as="geometry" />
        </mxCell>
        <mxCell id="08f4HY2ZrnXzvE_bdeJu-10" value="Salário" style="ellipse;whiteSpace=wrap;html=1;align=center;" vertex="1" parent="1">
          <mxGeometry x="210" y="250" width="55" height="40" as="geometry" />
        </mxCell>
        <mxCell id="08f4HY2ZrnXzvE_bdeJu-11" value="" style="endArrow=none;html=1;rounded=0;exitX=1;exitY=0.5;exitDx=0;exitDy=0;entryX=0;entryY=0.25;entryDx=0;entryDy=0;" edge="1" parent="1" source="08f4HY2ZrnXzvE_bdeJu-6" target="08f4HY2ZrnXzvE_bdeJu-1">
          <mxGeometry relative="1" as="geometry">
            <mxPoint x="540" y="390" as="sourcePoint" />
            <mxPoint x="700" y="390" as="targetPoint" />
          </mxGeometry>
        </mxCell>
        <mxCell id="08f4HY2ZrnXzvE_bdeJu-12" value="" style="endArrow=none;html=1;rounded=0;exitX=1;exitY=1;exitDx=0;exitDy=0;entryX=0;entryY=0;entryDx=0;entryDy=0;" edge="1" parent="1" source="08f4HY2ZrnXzvE_bdeJu-7" target="08f4HY2ZrnXzvE_bdeJu-1">
          <mxGeometry relative="1" as="geometry">
            <mxPoint x="540" y="390" as="sourcePoint" />
            <mxPoint x="340" y="210" as="targetPoint" />
          </mxGeometry>
        </mxCell>
        <mxCell id="08f4HY2ZrnXzvE_bdeJu-13" value="" style="endArrow=none;html=1;rounded=0;exitX=0.5;exitY=1;exitDx=0;exitDy=0;entryX=0.25;entryY=0;entryDx=0;entryDy=0;" edge="1" parent="1" source="08f4HY2ZrnXzvE_bdeJu-8" target="08f4HY2ZrnXzvE_bdeJu-1">
          <mxGeometry relative="1" as="geometry">
            <mxPoint x="540" y="390" as="sourcePoint" />
            <mxPoint x="700" y="390" as="targetPoint" />
          </mxGeometry>
        </mxCell>
        <mxCell id="08f4HY2ZrnXzvE_bdeJu-15" value="" style="endArrow=none;html=1;rounded=0;exitX=1;exitY=0;exitDx=0;exitDy=0;entryX=0.25;entryY=1;entryDx=0;entryDy=0;" edge="1" parent="1" source="08f4HY2ZrnXzvE_bdeJu-9" target="08f4HY2ZrnXzvE_bdeJu-1">
          <mxGeometry relative="1" as="geometry">
            <mxPoint x="540" y="390" as="sourcePoint" />
            <mxPoint x="700" y="390" as="targetPoint" />
          </mxGeometry>
        </mxCell>
        <mxCell id="08f4HY2ZrnXzvE_bdeJu-16" value="" style="endArrow=none;html=1;rounded=0;exitX=1;exitY=0.5;exitDx=0;exitDy=0;entryX=0;entryY=1;entryDx=0;entryDy=0;" edge="1" parent="1" source="08f4HY2ZrnXzvE_bdeJu-10" target="08f4HY2ZrnXzvE_bdeJu-1">
          <mxGeometry relative="1" as="geometry">
            <mxPoint x="540" y="390" as="sourcePoint" />
            <mxPoint x="700" y="390" as="targetPoint" />
          </mxGeometry>
        </mxCell>
        <mxCell id="08f4HY2ZrnXzvE_bdeJu-17" value="Departamento" style="whiteSpace=wrap;html=1;align=center;" vertex="1" parent="1">
          <mxGeometry x="520" y="200" width="80" height="40" as="geometry" />
        </mxCell>
        <mxCell id="08f4HY2ZrnXzvE_bdeJu-18" value="Alocado" style="shape=rhombus;perimeter=rhombusPerimeter;whiteSpace=wrap;html=1;align=center;" vertex="1" parent="1">
          <mxGeometry x="430" y="190" width="60" height="60" as="geometry" />
        </mxCell>
        <mxCell id="08f4HY2ZrnXzvE_bdeJu-23" value="" style="endArrow=none;html=1;rounded=0;exitX=1;exitY=0.5;exitDx=0;exitDy=0;entryX=0;entryY=0.5;entryDx=0;entryDy=0;" edge="1" parent="1" source="08f4HY2ZrnXzvE_bdeJu-18" target="08f4HY2ZrnXzvE_bdeJu-17">
          <mxGeometry relative="1" as="geometry">
            <mxPoint x="540" y="390" as="sourcePoint" />
            <mxPoint x="510" y="220" as="targetPoint" />
          </mxGeometry>
        </mxCell>
        <mxCell id="08f4HY2ZrnXzvE_bdeJu-24" value="1" style="resizable=0;html=1;align=right;verticalAlign=bottom;" connectable="0" vertex="1" parent="08f4HY2ZrnXzvE_bdeJu-23">
          <mxGeometry x="1" relative="1" as="geometry">
            <mxPoint x="-10" as="offset" />
          </mxGeometry>
        </mxCell>
        <mxCell id="08f4HY2ZrnXzvE_bdeJu-25" value="Dependente" style="shape=ext;margin=3;double=1;whiteSpace=wrap;html=1;align=center;" vertex="1" parent="1">
          <mxGeometry x="320" y="360" width="80" height="40" as="geometry" />
        </mxCell>
        <mxCell id="08f4HY2ZrnXzvE_bdeJu-26" value="" style="endArrow=none;html=1;rounded=0;exitX=1;exitY=0.5;exitDx=0;exitDy=0;entryX=0;entryY=0.5;entryDx=0;entryDy=0;" edge="1" parent="1" source="08f4HY2ZrnXzvE_bdeJu-1" target="08f4HY2ZrnXzvE_bdeJu-18">
          <mxGeometry relative="1" as="geometry">
            <mxPoint x="340" y="310" as="sourcePoint" />
            <mxPoint x="500" y="310" as="targetPoint" />
          </mxGeometry>
        </mxCell>
        <mxCell id="08f4HY2ZrnXzvE_bdeJu-27" value="N" style="resizable=0;html=1;align=right;verticalAlign=bottom;" connectable="0" vertex="1" parent="08f4HY2ZrnXzvE_bdeJu-26">
          <mxGeometry x="1" relative="1" as="geometry">
            <mxPoint x="-10" as="offset" />
          </mxGeometry>
        </mxCell>
        <mxCell id="08f4HY2ZrnXzvE_bdeJu-29" value="" style="endArrow=none;html=1;rounded=0;exitX=0.5;exitY=1;exitDx=0;exitDy=0;entryX=0.5;entryY=0;entryDx=0;entryDy=0;" edge="1" parent="1" source="08f4HY2ZrnXzvE_bdeJu-1">
          <mxGeometry relative="1" as="geometry">
            <mxPoint x="340" y="310" as="sourcePoint" />
            <mxPoint x="360" y="270" as="targetPoint" />
          </mxGeometry>
        </mxCell>
        <mxCell id="08f4HY2ZrnXzvE_bdeJu-30" value="1" style="resizable=0;html=1;align=right;verticalAlign=bottom;" connectable="0" vertex="1" parent="08f4HY2ZrnXzvE_bdeJu-29">
          <mxGeometry x="1" relative="1" as="geometry">
            <mxPoint x="10" as="offset" />
          </mxGeometry>
        </mxCell>
        <mxCell id="08f4HY2ZrnXzvE_bdeJu-33" value="Possui" style="shape=rhombus;double=1;perimeter=rhombusPerimeter;whiteSpace=wrap;html=1;align=center;" vertex="1" parent="1">
          <mxGeometry x="330" y="270" width="60" height="60" as="geometry" />
        </mxCell>
        <mxCell id="08f4HY2ZrnXzvE_bdeJu-34" value="" style="shape=link;html=1;rounded=0;exitX=0.5;exitY=1;exitDx=0;exitDy=0;entryX=0.5;entryY=0;entryDx=0;entryDy=0;" edge="1" parent="1" source="08f4HY2ZrnXzvE_bdeJu-33" target="08f4HY2ZrnXzvE_bdeJu-25">
          <mxGeometry relative="1" as="geometry">
            <mxPoint x="340" y="310" as="sourcePoint" />
            <mxPoint x="500" y="310" as="targetPoint" />
          </mxGeometry>
        </mxCell>
        <mxCell id="08f4HY2ZrnXzvE_bdeJu-35" value="N" style="resizable=0;html=1;align=right;verticalAlign=bottom;" connectable="0" vertex="1" parent="08f4HY2ZrnXzvE_bdeJu-34">
          <mxGeometry x="1" relative="1" as="geometry">
            <mxPoint x="17.5" y="-10" as="offset" />
          </mxGeometry>
        </mxCell>
        <mxCell id="08f4HY2ZrnXzvE_bdeJu-36" value="CPF" style="ellipse;whiteSpace=wrap;html=1;align=center;fontStyle=4;" vertex="1" parent="1">
          <mxGeometry x="215" y="360" width="60" height="40" as="geometry" />
        </mxCell>
        <mxCell id="08f4HY2ZrnXzvE_bdeJu-37" value="" style="endArrow=none;html=1;rounded=0;exitX=1;exitY=0.5;exitDx=0;exitDy=0;entryX=0;entryY=0.5;entryDx=0;entryDy=0;" edge="1" parent="1" source="08f4HY2ZrnXzvE_bdeJu-36" target="08f4HY2ZrnXzvE_bdeJu-25">
          <mxGeometry relative="1" as="geometry">
            <mxPoint x="340" y="310" as="sourcePoint" />
            <mxPoint x="500" y="310" as="targetPoint" />
          </mxGeometry>
        </mxCell>
        <mxCell id="08f4HY2ZrnXzvE_bdeJu-38" value="Nome" style="ellipse;whiteSpace=wrap;html=1;align=center;" vertex="1" parent="1">
          <mxGeometry x="240" y="310" width="55" height="40" as="geometry" />
        </mxCell>
        <mxCell id="08f4HY2ZrnXzvE_bdeJu-40" value="" style="endArrow=none;html=1;rounded=0;exitX=1;exitY=1;exitDx=0;exitDy=0;entryX=0;entryY=0;entryDx=0;entryDy=0;" edge="1" parent="1" source="08f4HY2ZrnXzvE_bdeJu-38" target="08f4HY2ZrnXzvE_bdeJu-25">
          <mxGeometry relative="1" as="geometry">
            <mxPoint x="340" y="310" as="sourcePoint" />
            <mxPoint x="220" y="370" as="targetPoint" />
          </mxGeometry>
        </mxCell>
        <mxCell id="08f4HY2ZrnXzvE_bdeJu-41" value="Sexo" style="ellipse;whiteSpace=wrap;html=1;align=center;" vertex="1" parent="1">
          <mxGeometry x="240" y="410" width="55" height="40" as="geometry" />
        </mxCell>
        <mxCell id="08f4HY2ZrnXzvE_bdeJu-42" value="" style="endArrow=none;html=1;rounded=0;exitX=1;exitY=0;exitDx=0;exitDy=0;entryX=0;entryY=1;entryDx=0;entryDy=0;" edge="1" parent="1" source="08f4HY2ZrnXzvE_bdeJu-41" target="08f4HY2ZrnXzvE_bdeJu-25">
          <mxGeometry relative="1" as="geometry">
            <mxPoint x="340" y="310" as="sourcePoint" />
            <mxPoint x="500" y="310" as="targetPoint" />
          </mxGeometry>
        </mxCell>
        <mxCell id="08f4HY2ZrnXzvE_bdeJu-43" value="Data de Nascimento" style="ellipse;whiteSpace=wrap;html=1;align=center;" vertex="1" parent="1">
          <mxGeometry x="295" y="440" width="70" height="40" as="geometry" />
        </mxCell>
        <mxCell id="08f4HY2ZrnXzvE_bdeJu-44" value="Grau de Parentesco" style="ellipse;whiteSpace=wrap;html=1;align=center;" vertex="1" parent="1">
          <mxGeometry x="365" y="420" width="70" height="40" as="geometry" />
        </mxCell>
        <mxCell id="08f4HY2ZrnXzvE_bdeJu-45" value="" style="endArrow=none;html=1;rounded=0;exitX=0.25;exitY=1;exitDx=0;exitDy=0;entryX=0.5;entryY=0;entryDx=0;entryDy=0;" edge="1" parent="1" source="08f4HY2ZrnXzvE_bdeJu-25" target="08f4HY2ZrnXzvE_bdeJu-43">
          <mxGeometry relative="1" as="geometry">
            <mxPoint x="340" y="300" as="sourcePoint" />
            <mxPoint x="500" y="300" as="targetPoint" />
          </mxGeometry>
        </mxCell>
        <mxCell id="08f4HY2ZrnXzvE_bdeJu-46" value="" style="endArrow=none;html=1;rounded=0;exitX=0.5;exitY=1;exitDx=0;exitDy=0;entryX=0;entryY=0;entryDx=0;entryDy=0;" edge="1" parent="1" source="08f4HY2ZrnXzvE_bdeJu-25" target="08f4HY2ZrnXzvE_bdeJu-44">
          <mxGeometry relative="1" as="geometry">
            <mxPoint x="340" y="300" as="sourcePoint" />
            <mxPoint x="500" y="300" as="targetPoint" />
          </mxGeometry>
        </mxCell>
        <mxCell id="08f4HY2ZrnXzvE_bdeJu-49" value="Supervisionar" style="shape=rhombus;perimeter=rhombusPerimeter;whiteSpace=wrap;html=1;align=center;" vertex="1" parent="1">
          <mxGeometry x="360" y="110" width="70" height="70" as="geometry" />
        </mxCell>
        <mxCell id="08f4HY2ZrnXzvE_bdeJu-50" value="" style="endArrow=none;html=1;rounded=0;exitX=0.5;exitY=0;exitDx=0;exitDy=0;entryX=0;entryY=0.5;entryDx=0;entryDy=0;" edge="1" parent="1" source="08f4HY2ZrnXzvE_bdeJu-1" target="08f4HY2ZrnXzvE_bdeJu-49">
          <mxGeometry relative="1" as="geometry">
            <mxPoint x="340" y="300" as="sourcePoint" />
            <mxPoint x="500" y="300" as="targetPoint" />
          </mxGeometry>
        </mxCell>
        <mxCell id="08f4HY2ZrnXzvE_bdeJu-51" value="1" style="resizable=0;html=1;align=right;verticalAlign=bottom;" connectable="0" vertex="1" parent="08f4HY2ZrnXzvE_bdeJu-50">
          <mxGeometry x="1" relative="1" as="geometry">
            <mxPoint x="20" y="45" as="offset" />
          </mxGeometry>
        </mxCell>
        <mxCell id="08f4HY2ZrnXzvE_bdeJu-52" value="" style="endArrow=none;html=1;rounded=0;exitX=1;exitY=0.5;exitDx=0;exitDy=0;entryX=1;entryY=0;entryDx=0;entryDy=0;" edge="1" parent="1" source="08f4HY2ZrnXzvE_bdeJu-49" target="08f4HY2ZrnXzvE_bdeJu-1">
          <mxGeometry relative="1" as="geometry">
            <mxPoint x="340" y="300" as="sourcePoint" />
            <mxPoint x="500" y="300" as="targetPoint" />
            <Array as="points">
              <mxPoint x="430" y="200" />
            </Array>
          </mxGeometry>
        </mxCell>
        <mxCell id="08f4HY2ZrnXzvE_bdeJu-53" value="N" style="resizable=0;html=1;align=right;verticalAlign=bottom;" connectable="0" vertex="1" parent="08f4HY2ZrnXzvE_bdeJu-52">
          <mxGeometry x="1" relative="1" as="geometry">
            <mxPoint x="25" y="-10" as="offset" />
          </mxGeometry>
        </mxCell>
        <mxCell id="08f4HY2ZrnXzvE_bdeJu-54" value="Sigla" style="ellipse;whiteSpace=wrap;html=1;align=center;fontStyle=4;" vertex="1" parent="1">
          <mxGeometry x="470" y="150" width="60" height="40" as="geometry" />
        </mxCell>
        <mxCell id="08f4HY2ZrnXzvE_bdeJu-55" value="" style="endArrow=none;html=1;rounded=0;exitX=1;exitY=1;exitDx=0;exitDy=0;entryX=0.25;entryY=0;entryDx=0;entryDy=0;" edge="1" parent="1" source="08f4HY2ZrnXzvE_bdeJu-54" target="08f4HY2ZrnXzvE_bdeJu-17">
          <mxGeometry relative="1" as="geometry">
            <mxPoint x="340" y="300" as="sourcePoint" />
            <mxPoint x="500" y="300" as="targetPoint" />
          </mxGeometry>
        </mxCell>
        <mxCell id="08f4HY2ZrnXzvE_bdeJu-56" value="Nome" style="ellipse;whiteSpace=wrap;html=1;align=center;" vertex="1" parent="1">
          <mxGeometry x="520" y="120" width="55" height="40" as="geometry" />
        </mxCell>
        <mxCell id="08f4HY2ZrnXzvE_bdeJu-57" value="" style="endArrow=none;html=1;rounded=0;exitX=0.5;exitY=1;exitDx=0;exitDy=0;" edge="1" parent="1" source="08f4HY2ZrnXzvE_bdeJu-56" target="08f4HY2ZrnXzvE_bdeJu-17">
          <mxGeometry relative="1" as="geometry">
            <mxPoint x="340" y="300" as="sourcePoint" />
            <mxPoint x="500" y="300" as="targetPoint" />
          </mxGeometry>
        </mxCell>
        <mxCell id="08f4HY2ZrnXzvE_bdeJu-60" value="Local" style="ellipse;whiteSpace=wrap;html=1;align=center;" vertex="1" parent="1">
          <mxGeometry x="580" y="130" width="55" height="40" as="geometry" />
        </mxCell>
        <mxCell id="08f4HY2ZrnXzvE_bdeJu-61" value="" style="endArrow=none;html=1;rounded=0;exitX=0;exitY=1;exitDx=0;exitDy=0;entryX=0.75;entryY=0;entryDx=0;entryDy=0;" edge="1" parent="1" source="08f4HY2ZrnXzvE_bdeJu-60" target="08f4HY2ZrnXzvE_bdeJu-17">
          <mxGeometry relative="1" as="geometry">
            <mxPoint x="340" y="300" as="sourcePoint" />
            <mxPoint x="500" y="300" as="targetPoint" />
          </mxGeometry>
        </mxCell>
        <mxCell id="08f4HY2ZrnXzvE_bdeJu-62" value="País" style="ellipse;whiteSpace=wrap;html=1;align=center;" vertex="1" parent="1">
          <mxGeometry x="570" y="80" width="55" height="40" as="geometry" />
        </mxCell>
        <mxCell id="08f4HY2ZrnXzvE_bdeJu-63" value="Estado" style="ellipse;whiteSpace=wrap;html=1;align=center;" vertex="1" parent="1">
          <mxGeometry x="635" y="90" width="55" height="40" as="geometry" />
        </mxCell>
        <mxCell id="08f4HY2ZrnXzvE_bdeJu-64" value="Cidade" style="ellipse;whiteSpace=wrap;html=1;align=center;" vertex="1" parent="1">
          <mxGeometry x="650" y="140" width="55" height="40" as="geometry" />
        </mxCell>
        <mxCell id="08f4HY2ZrnXzvE_bdeJu-67" value="" style="endArrow=none;html=1;rounded=0;exitX=0.5;exitY=1;exitDx=0;exitDy=0;entryX=0.4;entryY=-0.05;entryDx=0;entryDy=0;entryPerimeter=0;" edge="1" parent="1" source="08f4HY2ZrnXzvE_bdeJu-62" target="08f4HY2ZrnXzvE_bdeJu-60">
          <mxGeometry relative="1" as="geometry">
            <mxPoint x="340" y="300" as="sourcePoint" />
            <mxPoint x="500" y="300" as="targetPoint" />
          </mxGeometry>
        </mxCell>
        <mxCell id="08f4HY2ZrnXzvE_bdeJu-68" value="" style="endArrow=none;html=1;rounded=0;exitX=0;exitY=1;exitDx=0;exitDy=0;entryX=1;entryY=0;entryDx=0;entryDy=0;" edge="1" parent="1" source="08f4HY2ZrnXzvE_bdeJu-63" target="08f4HY2ZrnXzvE_bdeJu-60">
          <mxGeometry relative="1" as="geometry">
            <mxPoint x="340" y="300" as="sourcePoint" />
            <mxPoint x="500" y="300" as="targetPoint" />
          </mxGeometry>
        </mxCell>
        <mxCell id="08f4HY2ZrnXzvE_bdeJu-69" value="" style="endArrow=none;html=1;rounded=0;exitX=1;exitY=0.5;exitDx=0;exitDy=0;entryX=0;entryY=0.5;entryDx=0;entryDy=0;" edge="1" parent="1" source="08f4HY2ZrnXzvE_bdeJu-60" target="08f4HY2ZrnXzvE_bdeJu-64">
          <mxGeometry relative="1" as="geometry">
            <mxPoint x="340" y="300" as="sourcePoint" />
            <mxPoint x="500" y="300" as="targetPoint" />
          </mxGeometry>
        </mxCell>
        <mxCell id="08f4HY2ZrnXzvE_bdeJu-70" value="Gerencia" style="shape=rhombus;perimeter=rhombusPerimeter;whiteSpace=wrap;html=1;align=center;" vertex="1" parent="1">
          <mxGeometry x="430" y="250" width="60" height="60" as="geometry" />
        </mxCell>
        <mxCell id="08f4HY2ZrnXzvE_bdeJu-71" value="" style="endArrow=none;html=1;rounded=0;exitX=0.75;exitY=1;exitDx=0;exitDy=0;entryX=0;entryY=0.5;entryDx=0;entryDy=0;" edge="1" parent="1" source="08f4HY2ZrnXzvE_bdeJu-1" target="08f4HY2ZrnXzvE_bdeJu-70">
          <mxGeometry relative="1" as="geometry">
            <mxPoint x="340" y="300" as="sourcePoint" />
            <mxPoint x="500" y="300" as="targetPoint" />
            <Array as="points">
              <mxPoint x="380" y="280" />
            </Array>
          </mxGeometry>
        </mxCell>
        <mxCell id="08f4HY2ZrnXzvE_bdeJu-72" value="1" style="resizable=0;html=1;align=right;verticalAlign=bottom;" connectable="0" vertex="1" parent="08f4HY2ZrnXzvE_bdeJu-71">
          <mxGeometry x="1" relative="1" as="geometry">
            <mxPoint x="-20" as="offset" />
          </mxGeometry>
        </mxCell>
        <mxCell id="08f4HY2ZrnXzvE_bdeJu-74" value="" style="endArrow=none;html=1;rounded=0;exitX=1;exitY=0.5;exitDx=0;exitDy=0;entryX=0.25;entryY=1;entryDx=0;entryDy=0;" edge="1" parent="1">
          <mxGeometry relative="1" as="geometry">
            <mxPoint x="490" y="280" as="sourcePoint" />
            <mxPoint x="540" y="240" as="targetPoint" />
            <Array as="points">
              <mxPoint x="540" y="280" />
              <mxPoint x="540" y="270" />
            </Array>
          </mxGeometry>
        </mxCell>
        <mxCell id="08f4HY2ZrnXzvE_bdeJu-75" value="N" style="resizable=0;html=1;align=right;verticalAlign=bottom;" connectable="0" vertex="1" parent="08f4HY2ZrnXzvE_bdeJu-74">
          <mxGeometry x="1" relative="1" as="geometry">
            <mxPoint x="-20" y="40" as="offset" />
          </mxGeometry>
        </mxCell>
        <mxCell id="08f4HY2ZrnXzvE_bdeJu-76" value="Projeto" style="whiteSpace=wrap;html=1;align=center;" vertex="1" parent="1">
          <mxGeometry x="520" y="360" width="80" height="40" as="geometry" />
        </mxCell>
        <mxCell id="08f4HY2ZrnXzvE_bdeJu-77" value="Desenvolve" style="shape=rhombus;perimeter=rhombusPerimeter;whiteSpace=wrap;html=1;align=center;" vertex="1" parent="1">
          <mxGeometry x="530" y="270" width="60" height="60" as="geometry" />
        </mxCell>
        <mxCell id="08f4HY2ZrnXzvE_bdeJu-78" value="" style="endArrow=none;html=1;rounded=0;exitX=0.5;exitY=1;exitDx=0;exitDy=0;entryX=0.5;entryY=0;entryDx=0;entryDy=0;" edge="1" parent="1" source="08f4HY2ZrnXzvE_bdeJu-77" target="08f4HY2ZrnXzvE_bdeJu-76">
          <mxGeometry relative="1" as="geometry">
            <mxPoint x="340" y="300" as="sourcePoint" />
            <mxPoint x="500" y="300" as="targetPoint" />
          </mxGeometry>
        </mxCell>
        <mxCell id="08f4HY2ZrnXzvE_bdeJu-79" value="1" style="resizable=0;html=1;align=right;verticalAlign=bottom;" connectable="0" vertex="1" parent="08f4HY2ZrnXzvE_bdeJu-78">
          <mxGeometry x="1" relative="1" as="geometry">
            <mxPoint x="10" as="offset" />
          </mxGeometry>
        </mxCell>
        <mxCell id="08f4HY2ZrnXzvE_bdeJu-81" value="" style="endArrow=none;html=1;rounded=0;exitX=0.5;exitY=1;exitDx=0;exitDy=0;entryX=0.5;entryY=0;entryDx=0;entryDy=0;" edge="1" parent="1" source="08f4HY2ZrnXzvE_bdeJu-17" target="08f4HY2ZrnXzvE_bdeJu-77">
          <mxGeometry relative="1" as="geometry">
            <mxPoint x="340" y="300" as="sourcePoint" />
            <mxPoint x="500" y="300" as="targetPoint" />
          </mxGeometry>
        </mxCell>
        <mxCell id="08f4HY2ZrnXzvE_bdeJu-82" value="N" style="resizable=0;html=1;align=right;verticalAlign=bottom;" connectable="0" vertex="1" parent="08f4HY2ZrnXzvE_bdeJu-81">
          <mxGeometry x="1" relative="1" as="geometry">
            <mxPoint x="10" y="-10" as="offset" />
          </mxGeometry>
        </mxCell>
        <mxCell id="08f4HY2ZrnXzvE_bdeJu-83" value="Horas" style="ellipse;whiteSpace=wrap;html=1;align=center;" vertex="1" parent="1">
          <mxGeometry x="595" y="260" width="55" height="40" as="geometry" />
        </mxCell>
        <mxCell id="08f4HY2ZrnXzvE_bdeJu-84" value="" style="endArrow=none;html=1;rounded=0;entryX=0;entryY=0.5;entryDx=0;entryDy=0;exitX=1;exitY=0;exitDx=0;exitDy=0;" edge="1" parent="1" source="08f4HY2ZrnXzvE_bdeJu-77" target="08f4HY2ZrnXzvE_bdeJu-83">
          <mxGeometry relative="1" as="geometry">
            <mxPoint x="340" y="300" as="sourcePoint" />
            <mxPoint x="500" y="300" as="targetPoint" />
          </mxGeometry>
        </mxCell>
        <mxCell id="08f4HY2ZrnXzvE_bdeJu-85" value="Sigla" style="ellipse;whiteSpace=wrap;html=1;align=center;fontStyle=4;" vertex="1" parent="1">
          <mxGeometry x="460" y="310" width="60" height="40" as="geometry" />
        </mxCell>
        <mxCell id="08f4HY2ZrnXzvE_bdeJu-86" value="" style="endArrow=none;html=1;rounded=0;exitX=0;exitY=0.25;exitDx=0;exitDy=0;entryX=1;entryY=1;entryDx=0;entryDy=0;" edge="1" parent="1" source="08f4HY2ZrnXzvE_bdeJu-76" target="08f4HY2ZrnXzvE_bdeJu-85">
          <mxGeometry relative="1" as="geometry">
            <mxPoint x="340" y="300" as="sourcePoint" />
            <mxPoint x="500" y="300" as="targetPoint" />
          </mxGeometry>
        </mxCell>
        <mxCell id="08f4HY2ZrnXzvE_bdeJu-87" value="Nome" style="ellipse;whiteSpace=wrap;html=1;align=center;" vertex="1" parent="1">
          <mxGeometry x="432.5" y="360" width="55" height="40" as="geometry" />
        </mxCell>
        <mxCell id="08f4HY2ZrnXzvE_bdeJu-88" value="" style="endArrow=none;html=1;rounded=0;exitX=1;exitY=0.5;exitDx=0;exitDy=0;entryX=0;entryY=0.5;entryDx=0;entryDy=0;" edge="1" parent="1" source="08f4HY2ZrnXzvE_bdeJu-87" target="08f4HY2ZrnXzvE_bdeJu-76">
          <mxGeometry relative="1" as="geometry">
            <mxPoint x="340" y="300" as="sourcePoint" />
            <mxPoint x="510" y="380" as="targetPoint" />
          </mxGeometry>
        </mxCell>
        <mxCell id="08f4HY2ZrnXzvE_bdeJu-90" value="Data de Conclusão" style="ellipse;whiteSpace=wrap;html=1;align=center;" vertex="1" parent="1">
          <mxGeometry x="450" y="410" width="70" height="40" as="geometry" />
        </mxCell>
        <mxCell id="08f4HY2ZrnXzvE_bdeJu-91" value="" style="endArrow=none;html=1;rounded=0;exitX=1;exitY=0;exitDx=0;exitDy=0;entryX=0;entryY=0.75;entryDx=0;entryDy=0;" edge="1" parent="1" source="08f4HY2ZrnXzvE_bdeJu-90" target="08f4HY2ZrnXzvE_bdeJu-76">
          <mxGeometry relative="1" as="geometry">
            <mxPoint x="340" y="300" as="sourcePoint" />
            <mxPoint x="500" y="300" as="targetPoint" />
          </mxGeometry>
        </mxCell>
        <mxCell id="08f4HY2ZrnXzvE_bdeJu-92" value="Horas Trabalhadas" style="ellipse;whiteSpace=wrap;html=1;align=center;" vertex="1" parent="1">
          <mxGeometry x="170" y="210" width="70" height="40" as="geometry" />
        </mxCell>
        <mxCell id="08f4HY2ZrnXzvE_bdeJu-94" value="" style="endArrow=none;html=1;rounded=0;exitX=1;exitY=0.5;exitDx=0;exitDy=0;entryX=0;entryY=0.75;entryDx=0;entryDy=0;" edge="1" parent="1" source="08f4HY2ZrnXzvE_bdeJu-92" target="08f4HY2ZrnXzvE_bdeJu-1">
          <mxGeometry relative="1" as="geometry">
            <mxPoint x="340" y="290" as="sourcePoint" />
            <mxPoint x="500" y="290" as="targetPoint" />
          </mxGeometry>
        </mxCell>
        <mxCell id="08f4HY2ZrnXzvE_bdeJu-95" value="Horas Totais" style="ellipse;whiteSpace=wrap;html=1;align=center;dashed=1;" vertex="1" parent="1">
          <mxGeometry x="530" y="420" width="60" height="40" as="geometry" />
        </mxCell>
        <mxCell id="08f4HY2ZrnXzvE_bdeJu-96" value="" style="endArrow=none;html=1;rounded=0;exitX=0.5;exitY=1;exitDx=0;exitDy=0;entryX=0.5;entryY=0;entryDx=0;entryDy=0;" edge="1" parent="1" source="08f4HY2ZrnXzvE_bdeJu-76" target="08f4HY2ZrnXzvE_bdeJu-95">
          <mxGeometry relative="1" as="geometry">
            <mxPoint x="340" y="290" as="sourcePoint" />
            <mxPoint x="500" y="290" as="targetPoint" />
          </mxGeometry>
        </mxCell>
      </root>
    </mxGraphModel>
  </diagram>
</mxfile>
